<svg xmlns="http://www.w3.org/2000/svg" viewBox="0 0 800 600" width="800" height="600" role="img" aria-label="And then …? — modern timeline logo lockup">
  <desc>Text converted to outlines. No font dependency.</desc>
  <title>And then …? — Modern Minimalist &amp; Timeline</title>
  <style>
    .o2 .word  { font-size:64px; font-weight:600; fill:#1A1D20; letter-spacing:-1.6px; }
    .o2 .qm    { font-size:60px; font-weight:500; fill:#B9381E; }
    .o2 .eyebrow { font-size:11px; font-weight:600; fill:#5A6578; letter-spacing:4px; }
    .o2 .daylab  { font-size:10px; font-weight:600; letter-spacing:1.6px; }
    .o2 .caption { font-size:10px; font-weight:500; fill:#5A6578; letter-spacing:2px; }
  </style>
  <g class="o2">
    <rect width="800" height="600" fill="#F8F9FA"/>

    <!-- ICON: fourteen ticks. Day 0 charcoal, day 14 crimson, the twelve between recede. -->
    <g id="mark2" transform="translate(400,138)">
      <line x1="-130.00" y1="-15" x2="-130.00" y2="15" stroke="#1A1D20" stroke-width="3" stroke-linecap="round"/>
      <line x1="-110.00" y1="-5.5" x2="-110.00" y2="5.5" stroke="#5A6578" stroke-width="1.6" stroke-linecap="round" opacity="0.45"/>
      <line x1="-90.00" y1="-5.5" x2="-90.00" y2="5.5" stroke="#5A6578" stroke-width="1.6" stroke-linecap="round" opacity="0.45"/>
      <line x1="-70.00" y1="-5.5" x2="-70.00" y2="5.5" stroke="#5A6578" stroke-width="1.6" stroke-linecap="round" opacity="0.45"/>
      <line x1="-50.00" y1="-5.5" x2="-50.00" y2="5.5" stroke="#5A6578" stroke-width="1.6" stroke-linecap="round" opacity="0.45"/>
      <line x1="-30.00" y1="-5.5" x2="-30.00" y2="5.5" stroke="#5A6578" stroke-width="1.6" stroke-linecap="round" opacity="0.45"/>
      <line x1="-10.00" y1="-5.5" x2="-10.00" y2="5.5" stroke="#5A6578" stroke-width="1.6" stroke-linecap="round" opacity="0.45"/>
      <line x1="10.00" y1="-5.5" x2="10.00" y2="5.5" stroke="#5A6578" stroke-width="1.6" stroke-linecap="round" opacity="0.45"/>
      <line x1="30.00" y1="-5.5" x2="30.00" y2="5.5" stroke="#5A6578" stroke-width="1.6" stroke-linecap="round" opacity="0.45"/>
      <line x1="50.00" y1="-5.5" x2="50.00" y2="5.5" stroke="#5A6578" stroke-width="1.6" stroke-linecap="round" opacity="0.45"/>
      <line x1="70.00" y1="-5.5" x2="70.00" y2="5.5" stroke="#5A6578" stroke-width="1.6" stroke-linecap="round" opacity="0.45"/>
      <line x1="90.00" y1="-5.5" x2="90.00" y2="5.5" stroke="#5A6578" stroke-width="1.6" stroke-linecap="round" opacity="0.45"/>
      <line x1="110.00" y1="-5.5" x2="110.00" y2="5.5" stroke="#5A6578" stroke-width="1.6" stroke-linecap="round" opacity="0.45"/>
      <line x1="130.00" y1="-15" x2="130.00" y2="15" stroke="#B9381E" stroke-width="3" stroke-linecap="round"/>
      <g fill="rgb(90, 101, 120)" shape-rendering="geometricPrecision"><path transform="translate(-148.797,34.000) scale(0.004883,-0.004883)" d="M654 0H277V231H641Q797 231 901.5 288.5Q1006 346 1059.0 460.5Q1112 575 1112 747Q1112 917 1059.0 1031.0Q1006 1145 903.5 1202.0Q801 1259 648 1259H269V1490H664Q886 1490 1045.0 1401.0Q1204 1312 1289.5 1145.0Q1375 978 1375 747Q1375 514 1289.5 346.5Q1204 179 1042.5 89.5Q881 0 654 0ZM417 1490V0H150V1490Z"/><path transform="translate(-140.375,34.000) scale(0.004883,-0.004883)" d="M50 0 570 1490H909L1441 0H1148L883 774Q844 894 802.0 1045.5Q760 1197 709 1390H765Q715 1195 674.5 1042.5Q634 890 598 774L342 0ZM353 369V584H1138V369Z"/><path transform="translate(-132.281,34.000) scale(0.004883,-0.004883)" d="M600 0V577L50 1490H362L628 1020Q670 946 703.0 876.0Q736 806 771 705H701Q735 807 767.5 878.0Q800 949 840 1020L1101 1490H1411L867 577V0Z"/><path transform="translate(-119.422,34.000) scale(0.004883,-0.004883)" d="M675 -20Q495 -20 367.0 70.5Q239 161 171.0 331.5Q103 502 103 744Q103 986 171.5 1157.0Q240 1328 367.5 1419.0Q495 1510 675 1510Q856 1510 984.0 1419.0Q1112 1328 1180.0 1157.0Q1248 986 1248 744Q1248 502 1180.5 331.5Q1113 161 985.0 70.5Q857 -20 675 -20ZM676 204Q773 204 840.5 267.5Q908 331 943.5 451.5Q979 572 979 744Q979 917 943.5 1038.0Q908 1159 840.5 1223.0Q773 1287 676 1287Q578 1287 510.5 1223.0Q443 1159 407.5 1038.0Q372 917 372 744Q372 572 407.0 451.5Q442 331 510.0 267.5Q578 204 676 204Z"/></g>
      <g fill="rgb(185, 56, 30)" shape-rendering="geometricPrecision"><path transform="translate(108.258,34.000) scale(0.004883,-0.004883)" d="M654 0H277V231H641Q797 231 901.5 288.5Q1006 346 1059.0 460.5Q1112 575 1112 747Q1112 917 1059.0 1031.0Q1006 1145 903.5 1202.0Q801 1259 648 1259H269V1490H664Q886 1490 1045.0 1401.0Q1204 1312 1289.5 1145.0Q1375 978 1375 747Q1375 514 1289.5 346.5Q1204 179 1042.5 89.5Q881 0 654 0ZM417 1490V0H150V1490Z"/><path transform="translate(116.680,34.000) scale(0.004883,-0.004883)" d="M50 0 570 1490H909L1441 0H1148L883 774Q844 894 802.0 1045.5Q760 1197 709 1390H765Q715 1195 674.5 1042.5Q634 890 598 774L342 0ZM353 369V584H1138V369Z"/><path transform="translate(124.773,34.000) scale(0.004883,-0.004883)" d="M600 0V577L50 1490H362L628 1020Q670 946 703.0 876.0Q736 806 771 705H701Q735 807 767.5 878.0Q800 949 840 1020L1101 1490H1411L867 577V0Z"/><path transform="translate(137.633,34.000) scale(0.004883,-0.004883)" d="M717 1490V0H452V1252H442L94 1002V1256L421 1490Z"/><path transform="translate(143.461,34.000) scale(0.004883,-0.004883)" d="M107 277V490L740 1490H916V1186H809L380 509V497H1264V277ZM816 0V341L821 438V1490H1072V0Z"/></g>
    </g>

    <!-- LOCKUP: geometric sans, with the one serif note reserved for the question mark -->
    <g id="lock2" transform="translate(0.75,0)">
      <g fill="rgb(26, 29, 32)" shape-rendering="geometricPrecision"><path transform="translate(214.000,290.000) scale(0.031250,-0.031250)" d="M50 0 570 1490H909L1441 0H1148L883 774Q844 894 802.0 1045.5Q760 1197 709 1390H765Q715 1195 674.5 1042.5Q634 890 598 774L342 0ZM353 369V584H1138V369Z"/><path transform="translate(258.953,290.000) scale(0.031250,-0.031250)" d="M398 655V0H138V1118H384L388 842H367Q414 987 505.0 1059.5Q596 1132 733 1132Q848 1132 934.0 1083.0Q1020 1034 1067.5 940.0Q1115 846 1115 711V0H855V671Q855 783 797.0 847.0Q739 911 637 911Q568 911 514.0 881.0Q460 851 429.0 793.5Q398 736 398 655Z"/><path transform="translate(296.516,290.000) scale(0.031250,-0.031250)" d="M550 -20Q418 -20 313.5 47.5Q209 115 149.0 244.0Q89 373 89 557Q89 743 150.5 871.5Q212 1000 316.5 1066.0Q421 1132 549 1132Q649 1132 712.5 1098.5Q776 1065 813.5 1019.0Q851 973 870 933H881V1490H1141V0H886V177H870Q850 137 811.5 91.0Q773 45 710.0 12.5Q647 -20 550 -20ZM621 194Q706 194 765.0 239.5Q824 285 855.0 367.0Q886 449 886 558Q886 667 855.5 747.5Q825 828 765.5 873.0Q706 918 621 918Q533 918 474.0 871.5Q415 825 385.0 743.5Q355 662 355 558Q355 454 385.0 371.5Q415 289 474.5 241.5Q534 194 621 194Z"/><path transform="translate(349.375,290.000) scale(0.031250,-0.031250)" d="M655 1118V914H20V1118ZM179 1384H439V315Q439 254 465.0 225.5Q491 197 550 197Q568 197 597.5 201.5Q627 206 645 210L686 9Q643 -4 598.0 -9.5Q553 -15 512 -15Q351 -15 265.0 65.0Q179 145 179 293Z"/><path transform="translate(370.500,290.000) scale(0.031250,-0.031250)" d="M398 655V0H138V1490H394V842H367Q414 987 505.0 1059.5Q596 1132 733 1132Q848 1132 934.5 1083.0Q1021 1034 1068.5 940.0Q1116 846 1116 711V0H855V671Q855 783 797.0 847.0Q739 911 637 911Q568 911 514.0 881.0Q460 851 429.0 793.5Q398 736 398 655Z"/><path transform="translate(408.078,290.000) scale(0.031250,-0.031250)" d="M632 -23Q463 -23 341.5 48.0Q220 119 154.5 248.0Q89 377 89 552Q89 725 153.5 855.0Q218 985 336.5 1058.5Q455 1132 615 1132Q717 1132 809.5 1099.0Q902 1066 973.5 997.0Q1045 928 1085.5 821.5Q1126 715 1126 568V486H212V663H997L875 611Q875 705 846.0 776.5Q817 848 759.5 888.0Q702 928 616 928Q530 928 470.0 887.5Q410 847 378.5 779.5Q347 712 347 629V507Q347 401 383.0 328.0Q419 255 484.0 218.0Q549 181 635 181Q692 181 738.5 197.5Q785 214 819.0 246.5Q853 279 870 326L1109 277Q1082 187 1017.0 119.5Q952 52 854.5 14.5Q757 -23 632 -23Z"/><path transform="translate(444.328,290.000) scale(0.031250,-0.031250)" d="M398 655V0H138V1118H384L388 842H367Q414 987 505.0 1059.5Q596 1132 733 1132Q848 1132 934.0 1083.0Q1020 1034 1067.5 940.0Q1115 846 1115 711V0H855V671Q855 783 797.0 847.0Q739 911 637 911Q568 911 514.0 881.0Q460 851 429.0 793.5Q398 736 398 655Z"/></g>
      <rect x="502" y="282" width="8" height="8" fill="#5A6578" opacity="0.5"/>
      <rect x="518" y="282" width="8" height="8" fill="#5A6578" opacity="0.75"/>
      <rect x="534" y="282" width="8" height="8" fill="#1A1D20"/>
      <g fill="rgb(185, 56, 30)" shape-rendering="geometricPrecision"><path transform="translate(556.000,290.000) scale(0.060000,-0.060000)" d="M222 782Q288 782 337.5 760.5Q387 739 414.5 698.5Q442 658 442 602Q442 546 412.5 502.0Q383 458 330.0 427.5Q277 397 207 380V234H187V389Q251 414 282.0 444.0Q313 474 324.0 509.0Q335 544 335 583Q335 678 297.5 720.0Q260 762 201 762Q176 762 149.0 755.5Q122 749 107 729Q128 724 140.5 709.5Q153 695 153 671Q153 644 135.0 627.5Q117 611 90 611Q64 611 47.5 628.0Q31 645 31 669Q31 694 45.5 713.0Q60 732 82 746Q104 760 138.5 771.0Q173 782 222 782ZM198 123Q229 123 249.0 103.5Q269 84 269 54Q269 25 249.0 5.5Q229 -14 198 -14Q168 -14 147.5 5.5Q127 25 127 54Q127 84 147.5 103.5Q168 123 198 123Z"/></g>
    </g>

    <g fill="rgb(90, 101, 120)" shape-rendering="geometricPrecision"><path transform="translate(297.648,352.000) scale(0.005371,-0.005371)" d="M150 0V1490H1104V1265H417V818H1037V596H417V0Z"/><path transform="translate(308.102,352.000) scale(0.005371,-0.005371)" d="M788 -20Q592 -20 437.0 71.0Q282 162 192.5 333.0Q103 504 103 744Q103 985 192.5 1156.5Q282 1328 437.0 1419.0Q592 1510 788 1510Q983 1510 1137.5 1419.0Q1292 1328 1381.5 1156.5Q1471 985 1471 744Q1471 504 1381.5 332.5Q1292 161 1137.5 70.5Q983 -20 788 -20ZM788 219Q909 219 1002.5 279.5Q1096 340 1149.0 457.5Q1202 575 1202 744Q1202 915 1149.0 1032.5Q1096 1150 1002.5 1210.5Q909 1271 788 1271Q666 1271 572.0 1210.0Q478 1149 424.5 1031.5Q371 914 371 744Q371 575 424.5 458.0Q478 341 572.0 280.0Q666 219 788 219Z"/><path transform="translate(320.555,352.000) scale(0.005371,-0.005371)" d="M754 -22Q572 -22 436.0 46.5Q300 115 225.0 236.5Q150 358 150 517V1490H417V539Q417 446 458.5 373.0Q500 300 575.5 258.5Q651 217 754 217Q857 217 932.5 258.5Q1008 300 1049.5 373.0Q1091 446 1091 539V1490H1358V517Q1358 358 1282.5 236.5Q1207 115 1071.5 46.5Q936 -22 754 -22Z"/><path transform="translate(332.648,352.000) scale(0.005371,-0.005371)" d="M150 0V1490H707Q878 1490 995.0 1430.0Q1112 1370 1172.0 1262.5Q1232 1155 1232 1013Q1232 871 1171.5 766.0Q1111 661 993.0 604.0Q875 547 703 547H305V768H668Q769 768 833.0 796.5Q897 825 928.0 880.0Q959 935 959 1013Q959 1093 928.0 1149.5Q897 1206 832.5 1236.0Q768 1266 666 1266H417V0ZM988 0 626 676H918L1287 0Z"/><path transform="translate(343.836,352.000) scale(0.005371,-0.005371)" d="M83 1265V1490H1269V1265H810V0H543V1265Z"/><path transform="translate(355.086,352.000) scale(0.005371,-0.005371)" d="M150 0V1490H1118V1265H417V863H1066V641H417V225H1122V0Z"/><path transform="translate(365.758,352.000) scale(0.005371,-0.005371)" d="M150 0V1490H1118V1265H417V863H1066V641H417V225H1122V0Z"/><path transform="translate(376.414,352.000) scale(0.005371,-0.005371)" d="M150 0V1490H452L967 669Q999 618 1035.0 553.5Q1071 489 1110.0 409.5Q1149 330 1187 233H1157Q1150 317 1144.5 405.5Q1139 494 1136.5 573.5Q1134 653 1134 708V1490H1405V0H1102L637 739Q593 810 554.0 879.0Q515 948 470.0 1035.0Q425 1122 361 1245H399Q405 1136 410.0 1038.5Q415 941 418.5 864.0Q422 787 422 740V0Z"/><path transform="translate(395.539,352.000) scale(0.005371,-0.005371)" d="M654 0H277V231H641Q797 231 901.5 288.5Q1006 346 1059.0 460.5Q1112 575 1112 747Q1112 917 1059.0 1031.0Q1006 1145 903.5 1202.0Q801 1259 648 1259H269V1490H664Q886 1490 1045.0 1401.0Q1204 1312 1289.5 1145.0Q1375 978 1375 747Q1375 514 1289.5 346.5Q1204 179 1042.5 89.5Q881 0 654 0ZM417 1490V0H150V1490Z"/><path transform="translate(407.039,352.000) scale(0.005371,-0.005371)" d="M50 0 570 1490H909L1441 0H1148L883 774Q844 894 802.0 1045.5Q760 1197 709 1390H765Q715 1195 674.5 1042.5Q634 890 598 774L342 0ZM353 369V584H1138V369Z"/><path transform="translate(418.195,352.000) scale(0.005371,-0.005371)" d="M600 0V577L50 1490H362L628 1020Q670 946 703.0 876.0Q736 806 771 705H701Q735 807 767.5 878.0Q800 949 840 1020L1101 1490H1411L867 577V0Z"/><path transform="translate(430.055,352.000) scale(0.005371,-0.005371)" d="M673 -23Q500 -23 372.5 31.0Q245 85 173.0 188.0Q101 291 95 438H358Q365 360 407.0 308.0Q449 256 518.0 230.5Q587 205 671 205Q759 205 826.5 232.0Q894 259 932.0 307.5Q970 356 970 420Q970 478 936.5 516.0Q903 554 842.5 580.5Q782 607 701 627L532 671Q345 719 240.5 816.0Q136 913 136 1071Q136 1203 207.0 1302.0Q278 1401 401.0 1455.5Q524 1510 680 1510Q839 1510 959.0 1455.0Q1079 1400 1146.5 1303.0Q1214 1206 1217 1082H958Q948 1178 872.5 1230.5Q797 1283 676 1283Q592 1283 531.5 1257.5Q471 1232 438.5 1188.0Q406 1144 406 1087Q406 1025 444.5 985.0Q483 945 541.5 921.0Q600 897 660 882L799 846Q882 826 960.0 793.0Q1038 760 1100.5 709.5Q1163 659 1200.0 587.0Q1237 515 1237 418Q1237 287 1170.0 187.5Q1103 88 977.0 32.5Q851 -23 673 -23Z"/><path transform="translate(447.977,352.000) scale(0.005371,-0.005371)" d="M150 0V1490H417V225H1075V0Z"/><path transform="translate(458.195,352.000) scale(0.005371,-0.005371)" d="M50 0 570 1490H909L1441 0H1148L883 774Q844 894 802.0 1045.5Q760 1197 709 1390H765Q715 1195 674.5 1042.5Q634 890 598 774L342 0ZM353 369V584H1138V369Z"/><path transform="translate(469.242,352.000) scale(0.005371,-0.005371)" d="M83 1265V1490H1269V1265H810V0H543V1265Z"/><path transform="translate(480.492,352.000) scale(0.005371,-0.005371)" d="M150 0V1490H1118V1265H417V863H1066V641H417V225H1122V0Z"/><path transform="translate(491.164,352.000) scale(0.005371,-0.005371)" d="M150 0V1490H707Q878 1490 995.0 1430.0Q1112 1370 1172.0 1262.5Q1232 1155 1232 1013Q1232 871 1171.5 766.0Q1111 661 993.0 604.0Q875 547 703 547H305V768H668Q769 768 833.0 796.5Q897 825 928.0 880.0Q959 935 959 1013Q959 1093 928.0 1149.5Q897 1206 832.5 1236.0Q768 1266 666 1266H417V0ZM988 0 626 676H918L1287 0Z"/></g>

    <line x1="150" y1="416" x2="650" y2="416" stroke="#DFE2E5" stroke-width="1"/>

    <!-- small-size proofs: the mark reduces to three ticks -->
    <g transform="translate(190,474)">
      <g>
        <line x1="-22" y1="-11" x2="-22" y2="11" stroke="#1A1D20" stroke-width="3" stroke-linecap="round"/>
        <line x1="0" y1="-4" x2="0" y2="4" stroke="#5A6578" stroke-width="2" stroke-linecap="round" opacity="0.45"/>
        <line x1="22" y1="-11" x2="22" y2="11" stroke="#B9381E" stroke-width="3" stroke-linecap="round"/>
      </g>
      <g fill="rgb(90, 101, 120)" shape-rendering="geometricPrecision"><path transform="translate(-51.977,46.000) scale(0.004883,-0.004883)" d="M165 0V1490H699Q871 1490 986.0 1430.5Q1101 1371 1158.0 1265.0Q1215 1159 1215 1022Q1215 884 1157.5 780.5Q1100 677 985.0 620.0Q870 563 697 563H296V758H675Q785 758 852.5 789.5Q920 821 952.0 880.0Q984 939 984 1022Q984 1106 952.0 1167.0Q920 1228 852.0 1261.5Q784 1295 673 1295H393V0ZM1012 0 651 673H904L1271 0Z"/><path transform="translate(-43.508,46.000) scale(0.004883,-0.004883)" d="M165 0V1490H1103V1294H393V850H1052V655H393V196H1109V0Z"/><path transform="translate(-35.477,46.000) scale(0.004883,-0.004883)" d="M649 0H281V200H637Q806 200 918.0 263.0Q1030 326 1086.0 448.5Q1142 571 1142 747Q1142 922 1086.5 1043.0Q1031 1164 921.5 1227.0Q812 1290 649 1290H273V1490H664Q884 1490 1041.0 1401.0Q1198 1312 1282.0 1145.5Q1366 979 1366 747Q1366 514 1281.5 347.0Q1197 180 1036.5 90.0Q876 0 649 0ZM393 1490V0H165V1490Z"/><path transform="translate(-26.258,46.000) scale(0.004883,-0.004883)" d="M759 -23Q580 -23 446.0 46.0Q312 115 238.5 235.5Q165 356 165 512V1490H393V531Q393 430 437.5 352.0Q482 274 564.0 229.0Q646 184 759 184Q871 184 952.5 229.0Q1034 274 1078.0 352.0Q1122 430 1122 531V1490H1351V512Q1351 356 1277.5 235.5Q1204 115 1070.5 46.0Q937 -23 759 -23Z"/><path transform="translate(-16.852,46.000) scale(0.004883,-0.004883)" d="M784 -20Q591 -20 439.0 71.5Q287 163 200.0 334.5Q113 506 113 744Q113 983 200.0 1154.5Q287 1326 439.0 1418.0Q591 1510 784 1510Q902 1510 1005.5 1476.0Q1109 1442 1190.5 1377.0Q1272 1312 1325.5 1219.0Q1379 1126 1398 1008H1169Q1155 1079 1119.5 1133.5Q1084 1188 1033.0 1226.0Q982 1264 919.0 1283.0Q856 1302 786 1302Q658 1302 556.5 1237.5Q455 1173 397.0 1048.5Q339 924 339 744Q339 564 398.0 439.5Q457 315 558.0 251.5Q659 188 786 188Q856 188 918.5 207.5Q981 227 1032.5 264.5Q1084 302 1119.5 357.0Q1155 412 1169 482H1399Q1382 372 1330.0 280.5Q1278 189 1197.0 121.0Q1116 53 1011.5 16.5Q907 -20 784 -20Z"/><path transform="translate(-7.523,46.000) scale(0.004883,-0.004883)" d="M165 0V1490H1103V1294H393V850H1052V655H393V196H1109V0Z"/><path transform="translate(0.508,46.000) scale(0.004883,-0.004883)" d="M649 0H281V200H637Q806 200 918.0 263.0Q1030 326 1086.0 448.5Q1142 571 1142 747Q1142 922 1086.5 1043.0Q1031 1164 921.5 1227.0Q812 1290 649 1290H273V1490H664Q884 1490 1041.0 1401.0Q1198 1312 1282.0 1145.5Q1366 979 1366 747Q1366 514 1281.5 347.0Q1197 180 1036.5 90.0Q876 0 649 0ZM393 1490V0H165V1490Z"/><path transform="translate(14.398,46.000) scale(0.004883,-0.004883)" d="M165 0V1490H501L826 635Q840 597 857.5 539.0Q875 481 894.0 413.0Q913 345 930.0 279.0Q947 213 960 160H912Q925 210 942.0 275.5Q959 341 978.0 409.0Q997 477 1015.0 537.0Q1033 597 1047 635L1367 1490H1705V0H1478V802Q1478 848 1479.0 912.0Q1480 976 1481.5 1047.5Q1483 1119 1484.5 1192.0Q1486 1265 1487 1332H1504Q1484 1259 1460.5 1181.5Q1437 1104 1414.5 1032.0Q1392 960 1371.5 900.5Q1351 841 1337 802L1032 0H837L528 802Q513 840 493.5 898.5Q474 957 451.0 1028.5Q428 1100 404.0 1177.5Q380 1255 356 1332H376Q378 1271 379.5 1199.5Q381 1128 382.5 1055.0Q384 982 385.5 916.5Q387 851 387 802V0Z"/><path transform="translate(25.523,46.000) scale(0.004883,-0.004883)" d="M51 0 581 1490H861L1401 0H1154L864 829Q830 930 789.5 1067.0Q749 1204 696 1396H742Q691 1202 650.5 1063.5Q610 925 579 829L298 0ZM338 393V583H1113V393Z"/><path transform="translate(34.602,46.000) scale(0.004883,-0.004883)" d="M165 0V1490H699Q871 1490 986.0 1430.5Q1101 1371 1158.0 1265.0Q1215 1159 1215 1022Q1215 884 1157.5 780.5Q1100 677 985.0 620.0Q870 563 697 563H296V758H675Q785 758 852.5 789.5Q920 821 952.0 880.0Q984 939 984 1022Q984 1106 952.0 1167.0Q920 1228 852.0 1261.5Q784 1295 673 1295H393V0ZM1012 0 651 673H904L1271 0Z"/><path transform="translate(43.086,46.000) scale(0.004883,-0.004883)" d="M327 396V624Q376 699 424.5 765.0Q473 831 526.0 895.0Q579 959 639 1027L1057 1490H1347L714 793L699 796ZM165 0V1490H393V1014L389 674L393 562V0ZM1083 0 576 729 719 904 1353 0Z"/></g>
    </g>
    <g transform="translate(316,474)">
      <g transform="scale(0.5)">
        <line x1="-22" y1="-11" x2="-22" y2="11" stroke="#1A1D20" stroke-width="4" stroke-linecap="round"/>
        <line x1="0" y1="-4" x2="0" y2="4" stroke="#5A6578" stroke-width="3" stroke-linecap="round" opacity="0.5"/>
        <line x1="22" y1="-11" x2="22" y2="11" stroke="#B9381E" stroke-width="4" stroke-linecap="round"/>
      </g>
      <g fill="rgb(90, 101, 120)" shape-rendering="geometricPrecision"><path transform="translate(-19.336,46.000) scale(0.004883,-0.004883)" d="M144 0V165L650 688Q728 770 780.0 833.0Q832 896 859.0 954.0Q886 1012 886 1078Q886 1153 851.5 1207.0Q817 1261 757.5 1290.0Q698 1319 622 1319Q543 1319 484.0 1286.5Q425 1254 393.0 1195.0Q361 1136 361 1056H142Q142 1192 205.0 1294.5Q268 1397 377.0 1453.5Q486 1510 626 1510Q768 1510 875.5 1454.0Q983 1398 1044.0 1302.5Q1105 1207 1105 1086Q1105 1004 1074.5 926.0Q1044 848 967.5 750.0Q891 652 752 512L460 207V195H1128V0Z"/><path transform="translate(-11.336,46.000) scale(0.004883,-0.004883)" d="M114 290V474L756 1490H902V1219H809L352 496V484H1234V290ZM819 0V345L821 430V1490H1038V0Z"/><path transform="translate(1.898,46.000) scale(0.004883,-0.004883)" d="M165 0V1490H699Q871 1490 986.0 1426.0Q1101 1362 1158.0 1253.0Q1215 1144 1215 1006Q1215 868 1157.5 758.5Q1100 649 985.0 585.5Q870 522 697 522H332V715H675Q785 715 853.0 753.0Q921 791 952.5 857.0Q984 923 984 1006Q984 1090 952.5 1155.5Q921 1221 852.5 1258.0Q784 1295 673 1295H393V0Z"/><path transform="translate(10.305,46.000) scale(0.004883,-0.004883)" d="M55 0 649 847V676L93 1490H358L555 1196Q603 1126 633.0 1075.0Q663 1024 688.0 976.0Q713 928 745 866H696Q727 927 752.5 975.0Q778 1023 809.0 1074.5Q840 1126 887 1196L1088 1490H1347L795 687V853L1380 0H1114L871 356Q829 418 801.0 462.5Q773 507 749.5 550.0Q726 593 697 650H740Q711 595 687.0 552.0Q663 509 635.0 464.0Q607 419 563 356L317 0Z"/></g>
    </g>
    <g id="hz2" transform="translate(396,466)">
      <g transform="scale(0.62)">
        <line x1="-22" y1="-11" x2="-22" y2="11" stroke="#1A1D20" stroke-width="4" stroke-linecap="round"/>
        <line x1="0" y1="-4" x2="0" y2="4" stroke="#5A6578" stroke-width="3" stroke-linecap="round" opacity="0.5"/>
        <line x1="22" y1="-11" x2="22" y2="11" stroke="#B9381E" stroke-width="4" stroke-linecap="round"/>
      </g>
      <g fill="rgb(26, 29, 32)" shape-rendering="geometricPrecision"><path transform="translate(30.000,9.000) scale(0.013184,-0.013184)" d="M50 0 570 1490H909L1441 0H1148L883 774Q844 894 802.0 1045.5Q760 1197 709 1390H765Q715 1195 674.5 1042.5Q634 890 598 774L342 0ZM353 369V584H1138V369Z"/><path transform="translate(48.938,9.000) scale(0.013184,-0.013184)" d="M398 655V0H138V1118H384L388 842H367Q414 987 505.0 1059.5Q596 1132 733 1132Q848 1132 934.0 1083.0Q1020 1034 1067.5 940.0Q1115 846 1115 711V0H855V671Q855 783 797.0 847.0Q739 911 637 911Q568 911 514.0 881.0Q460 851 429.0 793.5Q398 736 398 655Z"/><path transform="translate(64.750,9.000) scale(0.013184,-0.013184)" d="M550 -20Q418 -20 313.5 47.5Q209 115 149.0 244.0Q89 373 89 557Q89 743 150.5 871.5Q212 1000 316.5 1066.0Q421 1132 549 1132Q649 1132 712.5 1098.5Q776 1065 813.5 1019.0Q851 973 870 933H881V1490H1141V0H886V177H870Q850 137 811.5 91.0Q773 45 710.0 12.5Q647 -20 550 -20ZM621 194Q706 194 765.0 239.5Q824 285 855.0 367.0Q886 449 886 558Q886 667 855.5 747.5Q825 828 765.5 873.0Q706 918 621 918Q533 918 474.0 871.5Q415 825 385.0 743.5Q355 662 355 558Q355 454 385.0 371.5Q415 289 474.5 241.5Q534 194 621 194Z"/><path transform="translate(87.000,9.000) scale(0.013184,-0.013184)" d="M655 1118V914H20V1118ZM179 1384H439V315Q439 254 465.0 225.5Q491 197 550 197Q568 197 597.5 201.5Q627 206 645 210L686 9Q643 -4 598.0 -9.5Q553 -15 512 -15Q351 -15 265.0 65.0Q179 145 179 293Z"/><path transform="translate(95.891,9.000) scale(0.013184,-0.013184)" d="M398 655V0H138V1490H394V842H367Q414 987 505.0 1059.5Q596 1132 733 1132Q848 1132 934.5 1083.0Q1021 1034 1068.5 940.0Q1116 846 1116 711V0H855V671Q855 783 797.0 847.0Q739 911 637 911Q568 911 514.0 881.0Q460 851 429.0 793.5Q398 736 398 655Z"/><path transform="translate(111.719,9.000) scale(0.013184,-0.013184)" d="M632 -23Q463 -23 341.5 48.0Q220 119 154.5 248.0Q89 377 89 552Q89 725 153.5 855.0Q218 985 336.5 1058.5Q455 1132 615 1132Q717 1132 809.5 1099.0Q902 1066 973.5 997.0Q1045 928 1085.5 821.5Q1126 715 1126 568V486H212V663H997L875 611Q875 705 846.0 776.5Q817 848 759.5 888.0Q702 928 616 928Q530 928 470.0 887.5Q410 847 378.5 779.5Q347 712 347 629V507Q347 401 383.0 328.0Q419 255 484.0 218.0Q549 181 635 181Q692 181 738.5 197.5Q785 214 819.0 246.5Q853 279 870 326L1109 277Q1082 187 1017.0 119.5Q952 52 854.5 14.5Q757 -23 632 -23Z"/><path transform="translate(126.984,9.000) scale(0.013184,-0.013184)" d="M398 655V0H138V1118H384L388 842H367Q414 987 505.0 1059.5Q596 1132 733 1132Q848 1132 934.0 1083.0Q1020 1034 1067.5 940.0Q1115 846 1115 711V0H855V671Q855 783 797.0 847.0Q739 911 637 911Q568 911 514.0 881.0Q460 851 429.0 793.5Q398 736 398 655Z"/></g>
      <rect x="150" y="0" width="4" height="4" fill="#5A6578" opacity="0.5"/>
      <rect x="158" y="0" width="4" height="4" fill="#5A6578" opacity="0.75"/>
      <rect x="166" y="0" width="4" height="4" fill="#1A1D20"/>
      <g fill="rgb(185, 56, 30)" shape-rendering="geometricPrecision"><path transform="translate(177.000,9.000) scale(0.029000,-0.029000)" d="M222 782Q288 782 337.5 760.5Q387 739 414.5 698.5Q442 658 442 602Q442 546 412.5 502.0Q383 458 330.0 427.5Q277 397 207 380V234H187V389Q251 414 282.0 444.0Q313 474 324.0 509.0Q335 544 335 583Q335 678 297.5 720.0Q260 762 201 762Q176 762 149.0 755.5Q122 749 107 729Q128 724 140.5 709.5Q153 695 153 671Q153 644 135.0 627.5Q117 611 90 611Q64 611 47.5 628.0Q31 645 31 669Q31 694 45.5 713.0Q60 732 82 746Q104 760 138.5 771.0Q173 782 222 782ZM198 123Q229 123 249.0 103.5Q269 84 269 54Q269 25 249.0 5.5Q229 -14 198 -14Q168 -14 147.5 5.5Q127 25 127 54Q127 84 147.5 103.5Q168 123 198 123Z"/></g>
      <g fill="rgb(90, 101, 120)" shape-rendering="geometricPrecision"><path transform="translate(27.117,46.000) scale(0.004883,-0.004883)" d="M165 0V1490H393V860H1131V1490H1360V0H1131V664H393V0Z"/><path transform="translate(36.555,46.000) scale(0.004883,-0.004883)" d="M786 -20Q593 -20 440.5 71.5Q288 163 200.5 334.5Q113 506 113 744Q113 983 200.5 1154.5Q288 1326 440.5 1418.0Q593 1510 786 1510Q979 1510 1130.5 1418.0Q1282 1326 1369.5 1154.5Q1457 983 1457 744Q1457 506 1369.5 334.5Q1282 163 1130.5 71.5Q979 -20 786 -20ZM786 188Q913 188 1013.5 251.5Q1114 315 1172.5 439.5Q1231 564 1231 744Q1231 926 1172.5 1050.5Q1114 1175 1013.5 1238.5Q913 1302 786 1302Q658 1302 557.0 1238.0Q456 1174 397.5 1049.5Q339 925 339 744Q339 564 397.5 440.0Q456 316 557.0 252.0Q658 188 786 188Z"/><path transform="translate(46.227,46.000) scale(0.004883,-0.004883)" d="M165 0V1490H699Q871 1490 986.0 1430.5Q1101 1371 1158.0 1265.0Q1215 1159 1215 1022Q1215 884 1157.5 780.5Q1100 677 985.0 620.0Q870 563 697 563H296V758H675Q785 758 852.5 789.5Q920 821 952.0 880.0Q984 939 984 1022Q984 1106 952.0 1167.0Q920 1228 852.0 1261.5Q784 1295 673 1295H393V0ZM1012 0 651 673H904L1271 0Z"/><path transform="translate(54.695,46.000) scale(0.004883,-0.004883)" d="M393 1490V0H165V1490Z"/><path transform="translate(59.430,46.000) scale(0.004883,-0.004883)" d="M125 0V150L770 1095Q819 1166 875.5 1237.0Q932 1308 988 1378L1010 1304Q915 1297 819.5 1295.5Q724 1294 630 1294H119V1490H1187V1338L552 409Q500 334 441.5 259.5Q383 185 324 112L302 186Q398 193 494.0 194.5Q590 196 686 196H1193V0Z"/><path transform="translate(67.492,46.000) scale(0.004883,-0.004883)" d="M786 -20Q593 -20 440.5 71.5Q288 163 200.5 334.5Q113 506 113 744Q113 983 200.5 1154.5Q288 1326 440.5 1418.0Q593 1510 786 1510Q979 1510 1130.5 1418.0Q1282 1326 1369.5 1154.5Q1457 983 1457 744Q1457 506 1369.5 334.5Q1282 163 1130.5 71.5Q979 -20 786 -20ZM786 188Q913 188 1013.5 251.5Q1114 315 1172.5 439.5Q1231 564 1231 744Q1231 926 1172.5 1050.5Q1114 1175 1013.5 1238.5Q913 1302 786 1302Q658 1302 557.0 1238.0Q456 1174 397.5 1049.5Q339 925 339 744Q339 564 397.5 440.0Q456 316 557.0 252.0Q658 188 786 188Z"/><path transform="translate(77.164,46.000) scale(0.004883,-0.004883)" d="M165 0V1490H428L989 603Q1017 559 1052.0 498.0Q1087 437 1126.0 360.5Q1165 284 1203 194H1175Q1166 279 1161.5 362.5Q1157 446 1155.0 519.0Q1153 592 1153 642V1490H1384V0H1120L617 793Q577 858 538.5 924.0Q500 990 453.5 1076.5Q407 1163 340 1287H376Q381 1177 386.0 1081.5Q391 986 393.5 912.5Q396 839 396 795V0Z"/><path transform="translate(86.727,46.000) scale(0.004883,-0.004883)" d="M90 1294V1490H1247V1294H784V0H555V1294Z"/><path transform="translate(94.383,46.000) scale(0.004883,-0.004883)" d="M51 0 581 1490H861L1401 0H1154L864 829Q830 930 789.5 1067.0Q749 1204 696 1396H742Q691 1202 650.5 1063.5Q610 925 579 829L298 0ZM338 393V583H1113V393Z"/><path transform="translate(103.477,46.000) scale(0.004883,-0.004883)" d="M165 0V1490H393V196H1068V0Z"/><path transform="translate(115.805,46.000) scale(0.004883,-0.004883)" d="M165 0V1490H393V196H1068V0Z"/><path transform="translate(123.164,46.000) scale(0.004883,-0.004883)" d="M786 -20Q593 -20 440.5 71.5Q288 163 200.5 334.5Q113 506 113 744Q113 983 200.5 1154.5Q288 1326 440.5 1418.0Q593 1510 786 1510Q979 1510 1130.5 1418.0Q1282 1326 1369.5 1154.5Q1457 983 1457 744Q1457 506 1369.5 334.5Q1282 163 1130.5 71.5Q979 -20 786 -20ZM786 188Q913 188 1013.5 251.5Q1114 315 1172.5 439.5Q1231 564 1231 744Q1231 926 1172.5 1050.5Q1114 1175 1013.5 1238.5Q913 1302 786 1302Q658 1302 557.0 1238.0Q456 1174 397.5 1049.5Q339 925 339 744Q339 564 397.5 440.0Q456 316 557.0 252.0Q658 188 786 188Z"/><path transform="translate(132.836,46.000) scale(0.004883,-0.004883)" d="M784 -20Q591 -20 439.0 71.5Q287 163 200.0 334.5Q113 506 113 744Q113 983 200.0 1154.5Q287 1326 439.0 1418.0Q591 1510 784 1510Q902 1510 1005.5 1476.0Q1109 1442 1190.5 1377.0Q1272 1312 1325.5 1219.0Q1379 1126 1398 1008H1169Q1155 1079 1119.5 1133.5Q1084 1188 1033.0 1226.0Q982 1264 919.0 1283.0Q856 1302 786 1302Q658 1302 556.5 1237.5Q455 1173 397.0 1048.5Q339 924 339 744Q339 564 398.0 439.5Q457 315 558.0 251.5Q659 188 786 188Q856 188 918.5 207.5Q981 227 1032.5 264.5Q1084 302 1119.5 357.0Q1155 412 1169 482H1399Q1382 372 1330.0 280.5Q1278 189 1197.0 121.0Q1116 53 1011.5 16.5Q907 -20 784 -20Z"/><path transform="translate(142.164,46.000) scale(0.004883,-0.004883)" d="M327 396V624Q376 699 424.5 765.0Q473 831 526.0 895.0Q579 959 639 1027L1057 1490H1347L714 793L699 796ZM165 0V1490H393V1014L389 674L393 562V0ZM1083 0 576 729 719 904 1353 0Z"/><path transform="translate(151.039,46.000) scale(0.004883,-0.004883)" d="M759 -23Q580 -23 446.0 46.0Q312 115 238.5 235.5Q165 356 165 512V1490H393V531Q393 430 437.5 352.0Q482 274 564.0 229.0Q646 184 759 184Q871 184 952.5 229.0Q1034 274 1078.0 352.0Q1122 430 1122 531V1490H1351V512Q1351 356 1277.5 235.5Q1204 115 1070.5 46.0Q937 -23 759 -23Z"/><path transform="translate(160.445,46.000) scale(0.004883,-0.004883)" d="M165 0V1490H699Q871 1490 986.0 1426.0Q1101 1362 1158.0 1253.0Q1215 1144 1215 1006Q1215 868 1157.5 758.5Q1100 649 985.0 585.5Q870 522 697 522H332V715H675Q785 715 853.0 753.0Q921 791 952.5 857.0Q984 923 984 1006Q984 1090 952.5 1155.5Q921 1221 852.5 1258.0Q784 1295 673 1295H393V0Z"/></g>
    </g>
  </g>
</svg>
